<svg version="1.1" id="Layer_1" xmlns="http://www.w3.org/2000/svg" xmlns:xlink="http://www.w3.org/1999/xlink" x="0px" y="0px"
	 width="100%" viewBox="0 0 500 500" enable-background="new 0 0 500 500" xml:space="preserve">
<path fill="#FFFFFF" opacity="1.000000" stroke="none" 
	d="
M273.000000,501.000000 
	C182.000015,501.000000 91.500046,501.000000 1.000049,501.000000 
	C1.000032,334.333405 1.000032,167.666794 1.000016,1.000138 
	C167.666565,1.000092 334.333130,1.000092 500.999756,1.000046 
	C500.999847,167.666519 500.999847,334.333038 500.999939,500.999786 
	C425.166656,501.000000 349.333344,501.000000 273.000000,501.000000 
M211.448959,235.147217 
	C213.027161,236.517899 214.605362,237.888580 216.148697,239.228973 
	C218.477051,237.242294 220.337708,235.654694 222.084503,234.164246 
	C217.470749,227.537354 217.514160,227.606201 211.682205,231.283401 
	C210.522720,232.014496 208.901031,232.202133 207.473038,232.279007 
	C204.325943,232.448410 201.166428,232.387344 197.473114,231.953659 
	C194.693771,229.234924 191.914444,226.516190 188.968475,223.634460 
	C185.537048,227.242737 182.593338,230.338196 179.310165,233.790588 
	C182.760345,236.927002 186.015762,239.886368 189.786301,243.314026 
	C194.451935,235.186111 202.128006,233.232880 211.448959,235.147217 
M85.263412,257.870911 
	C81.082932,262.053375 76.902451,266.235840 72.236511,270.904022 
	C76.827240,275.166962 81.138374,279.170288 85.717339,283.824707 
	C89.145317,287.144440 92.166801,292.585510 96.086945,293.336700 
	C103.944229,294.842224 112.292778,293.783844 120.438538,293.783844 
	C120.617538,293.350861 120.796547,292.917877 120.975548,292.484894 
	C113.601173,285.307983 106.226799,278.131104 99.146095,270.347626 
	C106.287910,263.113281 113.429718,255.878906 121.327812,247.878464 
	C114.752319,247.878464 109.373993,248.483902 104.187950,247.743149 
	C95.384453,246.485687 90.295891,251.152771 85.263412,257.870911 
M368.371368,224.022888 
	C362.557922,232.761856 356.578125,241.398041 351.063812,250.321869 
	C349.885193,252.229294 349.221344,256.176971 350.328064,257.481445 
	C355.603271,263.699371 360.025055,271.250488 369.467529,273.263519 
	C369.731934,273.467010 369.996307,273.670532 370.203308,274.610413 
	C371.242340,276.848236 371.820312,279.505524 373.404785,281.247040 
	C378.641602,287.002960 384.157562,292.516266 389.780884,297.898529 
	C390.783508,298.858154 392.804474,299.052307 394.364410,299.079834 
	C401.325714,299.202637 408.290314,299.137787 415.253723,299.138824 
	C428.401184,299.140778 428.401642,299.140350 431.698914,286.353485 
	C431.738861,286.198669 431.699188,286.023315 432.095184,285.554962 
	C432.336426,285.326355 432.577698,285.097748 433.624786,284.853271 
	C436.013947,284.141571 438.366516,283.245361 440.801025,282.762054 
	C444.317749,282.063843 445.626190,280.331665 445.481964,276.590240 
	C445.174652,268.617676 444.996918,260.597015 445.538422,252.648666 
	C445.960663,246.450790 444.200897,241.945663 439.408905,237.951767 
	C433.098633,232.692444 428.551117,225.184967 419.615936,222.380951 
	C417.761566,214.106354 410.898987,209.698135 405.220703,204.593750 
	C403.652161,203.183701 399.419281,203.290329 397.199951,204.353073 
	C392.597900,206.556824 388.481903,209.804230 384.247742,212.740311 
	C379.103363,216.307510 374.043243,219.996109 368.371368,224.022888 
M63.012856,261.486115 
	C63.978912,262.307770 64.944969,263.129456 64.961823,263.143799 
	C83.556206,244.742325 101.816788,226.671204 120.444061,208.237198 
	C113.933098,208.237198 107.508209,208.455658 101.107452,208.157028 
	C97.131409,207.971497 94.286499,209.153427 91.476929,212.033707 
	C79.852913,223.950195 67.978943,235.622742 56.211121,247.399231 
	C55.074970,248.536209 54.037868,249.772125 52.554630,251.401794 
	C56.059368,254.773636 59.287186,257.879059 63.012856,261.486115 
M248.588089,249.276047 
	C252.562851,246.273529 253.468170,242.286453 252.121689,237.704971 
	C250.797089,233.198044 247.071350,231.510239 242.961609,231.153763 
	C238.228577,230.743195 233.432571,231.058380 228.260300,231.058380 
	C228.260300,243.223587 228.214554,254.867523 228.347992,266.509430 
	C228.358551,267.431854 229.612106,268.340057 230.287994,269.254852 
	C231.016937,268.232452 232.324905,267.237732 232.375351,266.182861 
	C232.603104,261.421539 232.474823,256.643188 232.474823,252.239212 
	C236.949814,250.567978 239.179382,252.050186 240.889282,255.384750 
	C242.862366,259.232574 245.022324,263.024628 247.517761,266.545654 
	C248.582809,268.048401 250.702988,268.803345 252.343704,269.898102 
	C252.734360,269.456604 253.125015,269.015076 253.515656,268.573578 
	C250.201401,262.969757 246.887131,257.365967 243.508224,251.652878 
	C245.508530,250.779053 246.727066,250.246735 248.588089,249.276047 
M217.945572,262.465637 
	C217.945526,257.475220 218.042725,252.481583 217.876511,247.496719 
	C217.835419,246.264130 216.939011,245.060043 216.435776,243.842850 
	C215.328766,244.660294 214.221771,245.477737 212.994583,246.383942 
	C206.639450,242.056961 200.370438,242.038803 195.632111,246.566406 
	C191.082397,250.913727 189.805923,258.687988 193.826126,263.355438 
	C196.116501,266.014587 199.850082,268.309814 203.251709,268.883331 
	C206.597168,269.447357 210.344421,267.628265 213.958710,266.845490 
	C214.292557,270.546753 214.272079,274.672119 210.209015,277.034973 
	C205.762543,279.620758 201.315765,278.858704 197.017838,276.158112 
	C196.059250,275.555786 194.582474,275.778107 193.344284,275.620758 
	C193.885147,276.909546 194.058838,278.760406 195.028030,279.393463 
	C200.273682,282.819916 205.975876,283.250793 211.635315,280.542145 
	C216.860794,278.041199 217.924545,273.187927 217.942337,267.940613 
	C217.947418,266.443481 217.944702,264.946381 217.945572,262.465637 
M311.055267,266.213531 
	C310.890778,266.238403 310.726868,266.279938 310.561707,266.285736 
	C302.642242,266.564880 297.254181,263.373535 294.641083,256.859375 
	C291.834717,249.863190 293.684540,241.622940 299.039246,237.267456 
	C304.441315,232.873428 309.814667,232.995316 317.384735,237.275726 
	C318.393677,237.846222 320.210175,236.988434 322.522980,236.673615 
	C313.834167,227.736176 301.338562,228.154373 293.932617,236.405502 
	C286.226440,244.991135 287.474426,259.247131 296.540710,266.197906 
	C304.977570,272.666168 317.035217,271.289307 322.318146,262.456696 
	C320.793671,262.224976 319.278961,262.333099 317.958130,262.896088 
	C315.862152,263.789429 313.895721,264.986664 311.055267,266.213531 
M278.966888,232.443527 
	C272.970154,231.731766 266.973419,231.020020 260.409973,230.241013 
	C260.409973,243.264160 260.373444,255.052292 260.490417,266.838898 
	C260.498383,267.642426 261.658142,268.434570 262.282227,269.231995 
	C263.056427,268.408630 264.463257,267.612793 264.500458,266.757355 
	C264.714722,261.831512 264.604828,256.891510 264.604828,251.751495 
	C268.423706,251.560181 271.565125,251.541809 274.673737,251.213181 
	C278.921448,250.764130 282.510284,248.999146 283.683777,244.547882 
	C284.917969,239.866348 284.214417,235.591537 278.966888,232.443527 
z"/>
<path fill="#01D1B8" opacity="1.000000" stroke="none" 
	d="
M370.260712,273.874023 
	C369.996307,273.670532 369.731934,273.467010 369.268494,272.628448 
	C369.028503,255.872986 368.987579,239.752579 368.946655,223.632187 
	C374.043243,219.996109 379.103363,216.307510 384.247742,212.740311 
	C388.481903,209.804230 392.597900,206.556824 397.199951,204.353073 
	C399.419281,203.290329 403.652161,203.183701 405.220703,204.593750 
	C410.898987,209.698135 417.761566,214.106354 419.702515,222.777252 
	C419.789062,223.173538 419.752777,223.258179 419.311768,223.169891 
	C403.043945,223.081604 387.217102,223.081604 370.481995,223.081604 
	C371.745148,224.819595 372.211121,225.676636 372.872253,226.338943 
	C391.423035,244.923660 409.975159,263.507202 428.608734,282.008728 
	C429.673584,283.066040 431.430603,283.426208 432.859436,284.300720 
	C432.853394,284.490631 432.818939,284.869110 432.818970,284.869141 
	C432.577698,285.097748 432.336426,285.326355 431.530853,285.730469 
	C428.347412,286.950012 425.798920,288.279266 423.087524,288.950531 
	C420.792236,289.518799 418.079437,290.035980 415.947235,289.348389 
	C406.001099,286.140808 396.210114,282.455933 386.327271,279.047180 
	C381.009583,277.213074 375.618622,275.591492 370.260712,273.874023 
z"/>
<path fill="#6CB9F7" opacity="1.000000" stroke="none" 
	d="
M62.763931,261.235291 
	C59.287186,257.879059 56.059368,254.773636 52.554630,251.401794 
	C54.037868,249.772125 55.074970,248.536209 56.211121,247.399231 
	C67.978943,235.622742 79.852913,223.950195 91.476929,212.033707 
	C94.286499,209.153427 97.131409,207.971497 101.107452,208.157028 
	C107.508209,208.455658 113.933098,208.237198 120.444061,208.237198 
	C101.816788,226.671204 83.556206,244.742325 64.961823,263.143799 
	C64.944969,263.129456 63.978912,262.307770 62.763931,261.235291 
z"/>
<path fill="#05A5E4" opacity="1.000000" stroke="none" 
	d="
M433.221863,284.861206 
	C432.818939,284.869110 432.853394,284.490631 432.940063,283.923950 
	C434.001923,278.977783 438.095062,275.457886 436.247742,270.272491 
	C430.674408,254.627792 425.240845,238.933273 419.752777,223.258179 
	C419.752777,223.258179 419.789062,223.173538 419.812653,223.133942 
	C428.551117,225.184967 433.098633,232.692444 439.408905,237.951767 
	C444.200897,241.945663 445.960663,246.450790 445.538422,252.648666 
	C444.996918,260.597015 445.174652,268.617676 445.481964,276.590240 
	C445.626190,280.331665 444.317749,282.063843 440.801025,282.762054 
	C438.366516,283.245361 436.013947,284.141571 433.221863,284.861206 
z"/>
<path fill="#57DDCB" opacity="1.000000" stroke="none" 
	d="
M370.231995,274.242218 
	C375.618622,275.591492 381.009583,277.213074 386.327271,279.047180 
	C396.210114,282.455933 406.001099,286.140808 415.947235,289.348389 
	C418.079437,290.035980 420.792236,289.518799 423.087524,288.950531 
	C425.798920,288.279266 428.347412,286.950012 431.331604,285.881775 
	C431.699188,286.023315 431.738861,286.198669 431.698914,286.353485 
	C428.401642,299.140350 428.401184,299.140778 415.253723,299.138824 
	C408.290314,299.137787 401.325714,299.202637 394.364410,299.079834 
	C392.804474,299.052307 390.783508,298.858154 389.780884,297.898529 
	C384.157562,292.516266 378.641602,287.002960 373.404785,281.247040 
	C371.820312,279.505524 371.242340,276.848236 370.231995,274.242218 
z"/>
<path fill="#0684C7" opacity="1.000000" stroke="none" 
	d="
M368.658997,223.827545 
	C368.987579,239.752579 369.028503,255.872986 369.085297,272.457642 
	C360.025055,271.250488 355.603271,263.699371 350.328064,257.481445 
	C349.221344,256.176971 349.885193,252.229294 351.063812,250.321869 
	C356.578125,241.398041 362.557922,232.761856 368.658997,223.827545 
z"/>
<path fill="#3F616E" opacity="1.000000" stroke="none" 
	d="
M248.266846,249.495239 
	C246.727066,250.246735 245.508530,250.779053 243.508224,251.652878 
	C246.887131,257.365967 250.201401,262.969757 253.515656,268.573578 
	C253.125015,269.015076 252.734360,269.456604 252.343704,269.898102 
	C250.702988,268.803345 248.582809,268.048401 247.517761,266.545654 
	C245.022324,263.024628 242.862366,259.232574 240.889282,255.384750 
	C239.179382,252.050186 236.949814,250.567978 232.474823,252.239212 
	C232.474823,256.643188 232.603104,261.421539 232.375351,266.182861 
	C232.324905,267.237732 231.016937,268.232452 230.287994,269.254852 
	C229.612106,268.340057 228.358551,267.431854 228.347992,266.509430 
	C228.214554,254.867523 228.260300,243.223587 228.260300,231.058380 
	C233.432571,231.058380 238.228577,230.743195 242.961609,231.153763 
	C247.071350,231.510239 250.797089,233.198044 252.121689,237.704971 
	C253.468170,242.286453 252.562851,246.273529 248.266846,249.495239 
M248.091278,242.237152 
	C247.539536,235.452240 243.479156,233.594269 232.740540,235.350433 
	C232.740540,239.349304 232.740540,243.381439 232.740540,247.931885 
	C238.410004,247.128601 244.576675,249.799210 248.091278,242.237152 
z"/>
<path fill="#3F616E" opacity="1.000000" stroke="none" 
	d="
M217.945557,262.957458 
	C217.944702,264.946381 217.947418,266.443481 217.942337,267.940613 
	C217.924545,273.187927 216.860794,278.041199 211.635315,280.542145 
	C205.975876,283.250793 200.273682,282.819916 195.028030,279.393463 
	C194.058838,278.760406 193.885147,276.909546 193.344284,275.620758 
	C194.582474,275.778107 196.059250,275.555786 197.017838,276.158112 
	C201.315765,278.858704 205.762543,279.620758 210.209015,277.034973 
	C214.272079,274.672119 214.292557,270.546753 213.958710,266.845490 
	C210.344421,267.628265 206.597168,269.447357 203.251709,268.883331 
	C199.850082,268.309814 196.116501,266.014587 193.826126,263.355438 
	C189.805923,258.687988 191.082397,250.913727 195.632111,246.566406 
	C200.370438,242.038803 206.639450,242.056961 212.994583,246.383942 
	C214.221771,245.477737 215.328766,244.660294 216.435791,243.842865 
	C216.939011,245.060043 217.835419,246.264130 217.876511,247.496719 
	C218.042725,252.481583 217.945526,257.475220 217.945557,262.957458 
M207.654495,265.372742 
	C212.567154,263.613037 214.607727,260.050964 214.061310,254.964890 
	C213.631943,250.968552 211.557175,248.158463 207.604263,247.090897 
	C203.757263,246.051941 199.747421,246.687820 198.036438,250.268951 
	C196.632385,253.207657 196.048264,257.308807 196.918579,260.379425 
	C198.166275,264.781616 202.257690,266.357452 207.654495,265.372742 
z"/>
<path fill="#134BA3" opacity="1.000000" stroke="none" 
	d="
M98.852448,270.954224 
	C106.226799,278.131104 113.601173,285.307983 120.975548,292.484894 
	C120.796547,292.917877 120.617538,293.350861 120.438538,293.783844 
	C112.292778,293.783844 103.944229,294.842224 96.086945,293.336700 
	C92.166801,292.585510 89.145317,287.144440 85.955078,283.383789 
	C90.121620,279.000031 94.050415,275.057159 98.199005,271.082367 
	C98.418800,271.050446 98.852455,270.954193 98.852448,270.954224 
z"/>
<path fill="#6CB9F7" opacity="1.000000" stroke="none" 
	d="
M98.999275,270.650909 
	C98.852455,270.954193 98.418800,271.050446 98.074890,270.765991 
	C93.786423,266.178680 89.841858,261.875793 85.897293,257.572906 
	C90.295891,251.152771 95.384453,246.485687 104.187950,247.743149 
	C109.373993,248.483902 114.752319,247.878464 121.327812,247.878464 
	C113.429718,255.878906 106.287910,263.113281 98.999275,270.650909 
z"/>
<path fill="#3F616E" opacity="1.000000" stroke="none" 
	d="
M311.464874,266.134460 
	C313.895721,264.986664 315.862152,263.789429 317.958130,262.896088 
	C319.278961,262.333099 320.793671,262.224976 322.318146,262.456696 
	C317.035217,271.289307 304.977570,272.666168 296.540710,266.197906 
	C287.474426,259.247131 286.226440,244.991135 293.932617,236.405502 
	C301.338562,228.154373 313.834167,227.736176 322.522980,236.673615 
	C320.210175,236.988434 318.393677,237.846222 317.384735,237.275726 
	C309.814667,232.995316 304.441315,232.873428 299.039246,237.267456 
	C293.684540,241.622940 291.834717,249.863190 294.641083,256.859375 
	C297.254181,263.373535 302.642242,266.564880 310.561707,266.285736 
	C310.726868,266.279938 310.890778,266.238403 311.464874,266.134460 
z"/>
<path fill="#3F616E" opacity="1.000000" stroke="none" 
	d="
M279.299774,232.615112 
	C284.214417,235.591537 284.917969,239.866348 283.683777,244.547882 
	C282.510284,248.999146 278.921448,250.764130 274.673737,251.213181 
	C271.565125,251.541809 268.423706,251.560181 264.604828,251.751495 
	C264.604828,256.891510 264.714722,261.831512 264.500458,266.757355 
	C264.463257,267.612793 263.056427,268.408630 262.282227,269.231995 
	C261.658142,268.434570 260.498383,267.642426 260.490417,266.838898 
	C260.373444,255.052292 260.409973,243.264160 260.409973,230.241013 
	C266.973419,231.020020 272.970154,231.731766 279.299774,232.615112 
M278.914948,244.318542 
	C280.958527,236.376404 275.477570,232.944412 264.967468,235.515961 
	C264.967468,239.548569 264.967468,243.544540 264.967468,249.116547 
	C270.031708,247.558670 274.260712,246.257721 278.914948,244.318542 
z"/>
<path fill="#46A5F3" opacity="1.000000" stroke="none" 
	d="
M85.580353,257.721924 
	C89.841858,261.875793 93.786423,266.178680 97.855103,270.797913 
	C94.050415,275.057159 90.121620,279.000031 85.821167,283.058258 
	C81.138374,279.170288 76.827240,275.166962 72.236511,270.904022 
	C76.902451,266.235840 81.082932,262.053375 85.580353,257.721924 
z"/>
<path fill="#338E94" opacity="1.000000" stroke="none" 
	d="
M211.071838,234.563904 
	C202.128006,233.232880 194.451935,235.186111 189.786301,243.314026 
	C186.015762,239.886368 182.760345,236.927002 179.310165,233.790588 
	C182.593338,230.338196 185.537048,227.242737 188.968475,223.634460 
	C191.914444,226.516190 194.693771,229.234924 197.825562,232.570618 
	C199.652039,233.566055 201.108627,234.152664 202.603912,234.278137 
	C205.414749,234.514008 208.247940,234.483597 211.071838,234.563904 
z"/>
<path fill="#57DDCB" opacity="1.000000" stroke="none" 
	d="
M211.260406,234.855560 
	C208.247940,234.483597 205.414749,234.514008 202.603912,234.278137 
	C201.108627,234.152664 199.652039,233.566055 198.094986,232.803955 
	C201.166428,232.387344 204.325943,232.448410 207.473038,232.279007 
	C208.901031,232.202133 210.522720,232.014496 211.682205,231.283401 
	C217.514160,227.606201 217.470749,227.537354 222.084503,234.164246 
	C220.337708,235.654694 218.477051,237.242294 216.148697,239.228973 
	C214.605362,237.888580 213.027161,236.517899 211.260406,234.855560 
z"/>
<path fill="#0083C8" opacity="1.000000" stroke="none" 
	d="
M419.311768,223.169891 
	C425.240845,238.933273 430.674408,254.627792 436.247742,270.272491 
	C438.095062,275.457886 434.001923,278.977783 432.946106,283.734009 
	C431.430603,283.426208 429.673584,283.066040 428.608734,282.008728 
	C409.975159,263.507202 391.423035,244.923660 372.872253,226.338943 
	C372.211121,225.676636 371.745148,224.819595 370.481995,223.081604 
	C387.217102,223.081604 403.043945,223.081604 419.311768,223.169891 
z"/>
<path fill="#FFFFFF" opacity="1.000000" stroke="none" 
	d="
M248.029770,242.637970 
	C244.576675,249.799210 238.410004,247.128601 232.740540,247.931885 
	C232.740540,243.381439 232.740540,239.349304 232.740540,235.350433 
	C243.479156,233.594269 247.539536,235.452240 248.029770,242.637970 
z"/>
<path fill="#FFFFFF" opacity="1.000000" stroke="none" 
	d="
M207.284424,265.493103 
	C202.257690,266.357452 198.166275,264.781616 196.918579,260.379425 
	C196.048264,257.308807 196.632385,253.207657 198.036438,250.268951 
	C199.747421,246.687820 203.757263,246.051941 207.604263,247.090897 
	C211.557175,248.158463 213.631943,250.968552 214.061310,254.964890 
	C214.607727,260.050964 212.567154,263.613037 207.284424,265.493103 
z"/>
<path fill="#FFFFFF" opacity="1.000000" stroke="none" 
	d="
M278.702332,244.637665 
	C274.260712,246.257721 270.031708,247.558670 264.967468,249.116547 
	C264.967468,243.544540 264.967468,239.548569 264.967468,235.515961 
	C275.477570,232.944412 280.958527,236.376404 278.702332,244.637665 
z"/>
</svg>